<svg width="177" height="181" viewBox="0 0 177 181" fill="none" xmlns="http://www.w3.org/2000/svg">
<path d="M93.5543 180.833C139.455 180.833 176.665 144.17 176.665 98.9443C176.665 53.7185 139.455 17.0558 93.5543 17.0558C47.6535 17.0558 10.4436 53.7185 10.4436 98.9443C10.4436 144.17 47.6535 180.833 93.5543 180.833Z" fill="#F9D4B0"/>
<path d="M164.443 82.9811C164.443 69.1911 161.07 56.1128 155.123 44.6359C139.945 27.732 117.932 17.0558 93.4346 17.0558C47.6342 17.0558 10.4436 54.3334 10.4436 100.241C10.4436 114.031 13.8165 127.109 19.7634 138.586C34.9415 155.49 56.9541 166.166 81.4519 166.166C127.252 166.166 164.443 128.978 164.443 82.9811Z" fill="url(#paint0_linear_432_67)"/>
<path d="M164.443 83.6667C164.443 129.196 127.747 166.166 82.5548 166.166C37.3628 166.166 0.66626 129.284 0.66626 83.6667C0.66626 38.0493 37.3628 1.16711 82.5548 1.16711" stroke="#2C2C2C" stroke-miterlimit="10" stroke-linecap="round" stroke-linejoin="round"/>
<defs>
<linearGradient id="paint0_linear_432_67" x1="87.4433" y1="17.0558" x2="87.4433" y2="166.166" gradientUnits="userSpaceOnUse">
<stop stop-color="#F3E3C1"/>
<stop offset="1" stop-color="white" stop-opacity="0.42"/>
</linearGradient>
</defs>
</svg>
