<svg width="266" height="266" viewBox="0 0 266 266" fill="none" xmlns="http://www.w3.org/2000/svg">
<path d="M132.694 230.476C106.594 230.476 82.0817 220.306 63.6482 201.872C45.2147 183.439 35.0444 158.887 35.0444 132.826C35.0444 106.765 45.2147 82.2132 63.6482 63.7796C82.0817 45.3461 106.594 35.1759 132.694 35.1759C158.795 35.1759 183.307 45.3461 201.741 63.7796C220.174 82.2132 230.344 106.725 230.344 132.826C230.344 158.927 220.174 183.439 201.741 201.872C183.307 220.306 158.756 230.476 132.694 230.476ZM132.694 60.9193C113.506 60.9193 95.4301 68.388 81.8831 81.9748C68.2963 95.5616 60.8275 113.598 60.8275 132.786C60.8275 151.975 68.2963 170.05 81.8831 183.598C95.4698 197.184 113.506 204.653 132.694 204.653C151.883 204.653 169.959 197.184 183.506 183.598C197.093 170.011 204.561 151.975 204.561 132.786C204.561 113.598 197.093 95.5219 183.506 81.9748C169.919 68.4278 151.883 60.9193 132.694 60.9193Z" fill="#FF9F0B" fill-opacity="0.91"/>
<path d="M80.5089 203.965L79.4124 205.374L73.9442 201.117L71.7898 203.884L80.8703 210.953L89.9007 199.354L83.6206 194.465C80.9527 192.388 78.0702 192.672 76.535 194.644C75.232 196.318 74.3613 199.179 78.2057 202.172L80.5089 203.965ZM84.1082 199.342L82.3924 201.546L80.3708 199.972C79.5423 199.327 79.2849 198.461 79.8267 197.766C80.4072 197.02 81.2747 197.136 82.1032 197.781L84.1082 199.342Z" fill="white"/>
<path d="M66.7595 194.191L64.0426 196.442L66.9629 199.968L78.2835 190.59L74.1307 185.577C71.4782 182.375 68.1865 181.693 65.5666 183.863C62.8981 186.073 62.8746 189.502 65.5404 192.72L66.7595 194.191ZM68.732 179.059L65.8116 175.534L54.4911 184.911L57.4114 188.437L68.732 179.059ZM72.5653 189.382L69.5573 191.874L68.4186 190.499C67.4943 189.383 67.5138 188.222 68.4842 187.418C69.3736 186.681 70.5023 186.892 71.4267 188.008L72.5653 189.382Z" fill="white"/>
<path d="M53.2896 182.518L56.6558 180.752L54.6272 176.884L64.2795 171.822L62.1437 167.749L52.4913 172.811L50.453 168.924L47.0868 170.689L53.2896 182.518Z" fill="white"/>
<path d="M47.806 162.284L44.4472 163.364L45.8479 167.722L59.8429 163.224L57.8511 157.027C56.5788 153.068 53.7764 151.211 50.5375 152.252C47.2387 153.313 45.9426 156.486 47.2213 160.465L47.806 162.284ZM54.9834 159.978L51.2648 161.173L50.7186 159.473C50.2752 158.094 50.7251 157.023 51.9247 156.637C53.0243 156.284 53.9939 156.899 54.4373 158.278L54.9834 159.978Z" fill="white"/>
<path d="M39.2406 128.631L39.5246 140.787L46.8355 140.826C49.6717 140.844 50.4397 141.351 50.5218 142.168L50.5601 143.806L56.8164 143.659L56.709 139.062L54.1897 139.121L53.9861 130.408L56.5054 130.349L56.3985 125.772L50.1422 125.919L50.1996 128.375L39.2406 128.631ZM50.3929 136.647C49.5472 136.414 48.4936 136.271 47.1704 136.281L43.1576 136.248L43.0845 133.12L50.3065 132.952L50.3929 136.647Z" fill="white"/>
<path d="M55.7391 118.174C56.616 113.552 54.0767 109.586 49.7234 108.76C45.3907 107.938 41.5998 110.681 40.723 115.303C39.8461 119.925 42.3892 123.87 46.7425 124.696C51.0752 125.518 54.8661 122.774 55.7391 118.174ZM51.9054 117.425C51.5335 119.385 49.7651 120.481 47.5988 120.07C45.4118 119.655 44.168 117.987 44.5399 116.027C44.9118 114.067 46.7008 112.975 48.8878 113.39C51.0541 113.801 52.2773 115.465 51.9054 117.425Z" fill="white"/>
<path d="M50.3445 101.633L48.6923 100.958L51.3151 94.5431L48.0689 93.2158L43.7136 103.868L57.3201 109.431L60.3323 102.064C61.6119 98.9348 60.5601 96.2359 58.247 95.2902C56.2837 94.4874 53.2932 94.4217 51.4493 98.9313L50.3445 101.633ZM55.7677 103.851L53.1825 102.794L54.1521 100.422C54.5495 99.4502 55.3136 98.9686 56.13 99.3024C57.0047 99.6601 57.1268 100.527 56.7294 101.499L55.7677 103.851Z" fill="white"/>
<path d="M54.4547 81.972L50.9262 87.4428L63.2797 95.4103L65.761 91.5631L62.7432 89.6168L63.779 88.0108C66.044 84.4989 65.6667 81.1319 62.7548 79.2539C59.8959 77.41 56.7197 78.4601 54.4547 81.972ZM59.6725 87.6363L56.4782 85.5761L57.4571 84.0584C58.2311 82.8583 59.2676 82.4523 60.2912 83.1125C61.35 83.7954 61.4253 84.9185 60.6513 86.1185L59.6725 87.6363Z" fill="white"/>
<path d="M65.9137 72.5584L63.4254 70.0573L60.18 73.2861L70.5476 83.7073L75.1627 79.1159C78.1105 76.1833 78.4903 72.8432 76.0909 70.4315C73.6471 67.975 70.231 68.2632 67.2684 71.2106L65.9137 72.5584ZM81.1624 73.1471L84.4078 69.9183L74.0402 59.4971L70.7947 62.7259L81.1624 73.1471ZM71.2308 77.903L68.476 75.1339L69.7414 73.875C70.7686 72.853 71.9271 72.7669 72.8158 73.6602C73.6304 74.479 73.5235 75.6221 72.4962 76.644L71.2308 77.903Z" fill="white"/>
<path d="M87.7209 58.7174L80.6714 55.1613L77.0279 57.3744L84.6593 69.9383L88.3926 67.6707L84.4897 61.2452L90.2248 64.1745L91.4094 63.4549L91.4286 57.0549L95.3207 63.4625L99.0539 61.1949L91.4225 48.631L87.7969 50.8332L87.7209 58.7174Z" fill="white"/>
<path d="M110.781 45.0854L103.157 47.2933L103.951 50.0366L111.576 47.8287L110.781 45.0854ZM112.119 49.7047L104.494 51.9125L105.288 54.6558L112.913 52.448L112.119 49.7047Z" fill="white"/>
<path d="M136.159 39.1472L122.204 39.6777L122.762 54.3671L127.316 54.1939L126.9 43.2399L131.705 43.0572L132.122 54.0113L136.717 53.8365L136.159 39.1472Z" fill="white"/>
<path d="M145.792 55.3747C150.432 56.1478 154.34 53.5203 155.068 49.1495C155.792 44.7995 152.965 41.0711 148.325 40.298C143.685 39.525 139.797 42.1559 139.069 46.5267C138.345 50.8767 141.172 54.6051 145.792 55.3747ZM146.454 51.5253C144.486 51.1974 143.35 49.454 143.713 47.279C144.079 45.0833 145.718 43.8024 147.686 44.1302C149.654 44.4581 150.787 46.2222 150.421 48.4179C150.058 50.5929 148.422 51.8531 146.454 51.5253Z" fill="white"/>
<path d="M165.233 52.2536L163.871 44.4764L159.919 42.8781L154.407 56.5058L158.457 58.1435L161.275 51.1739L162.355 57.5227L163.64 58.0424L168.782 54.2325L165.971 61.1826L170.021 62.8203L175.532 49.1926L171.6 47.6022L165.233 52.2536Z" fill="white"/>
<path d="M177.406 68.1334C181.279 70.8038 185.933 70.0846 188.448 66.4369C190.951 62.8064 189.975 58.23 186.102 55.5596C182.23 52.8892 177.593 53.6202 175.078 57.268C172.574 60.8985 173.551 65.4749 177.406 68.1334ZM179.641 64.9297C177.998 63.7972 177.71 61.7364 178.962 59.9212C180.226 58.0886 182.254 57.6253 183.897 58.7579C185.539 59.8904 185.815 61.9685 184.552 63.801C183.3 65.6163 181.283 66.0623 179.641 64.9297Z" fill="white"/>
<path d="M184.886 73.2804L188.085 76.4961L195.827 68.7944L200.788 73.7817L203.468 71.1157L195.307 62.9127L184.886 73.2804Z" fill="white"/>
<path d="M202.78 95.2622L211.32 81.7306L208.729 77.9565L193.033 81.0663L195.719 84.9788L198.042 84.4286L201.417 89.3453L200.058 91.2977L202.78 95.2622ZM206.164 82.4943L203.319 86.5874L201.299 83.6443L206.164 82.4943Z" fill="white"/>
<path d="M215.429 88.1592L211.959 89.7109L213.742 93.6983L203.793 98.1475L205.67 102.346L215.62 97.8967L217.411 101.903L220.881 100.352L215.429 88.1592Z" fill="white"/>
<path d="M219.768 109.011L223.19 108.154L222.078 103.713L207.819 107.286L209.401 113.601C210.411 117.634 213.086 119.67 216.386 118.843C219.747 118.001 221.248 114.919 220.233 110.865L219.768 109.011ZM212.455 110.844L216.244 109.894L216.678 111.626C217.03 113.031 216.511 114.071 215.289 114.377C214.169 114.657 213.241 113.981 212.889 112.575L212.455 110.844Z" fill="white"/>
<path d="M223.49 135.328L223.421 127.39L220.565 127.415L220.634 135.353L223.49 135.328ZM218.681 135.37L218.612 127.432L215.756 127.457L215.825 135.395L218.681 135.37Z" fill="white"/>
<path d="M222.282 161.523L225.603 147.959L211.324 144.464L210.241 148.89L220.888 151.496L219.745 156.168L209.097 153.561L208.004 158.028L222.282 161.523Z" fill="white"/>
<path d="M214.758 178.827L216.387 175.347L212.267 166.716L218.961 169.851L220.912 165.686L207.599 159.452L206.023 162.818L210.252 171.662L203.387 168.447L201.445 172.593L214.758 178.827Z" fill="white"/>
<path d="M212.997 181.83L209.91 179.613L207.362 183.16L198.51 176.801L195.827 180.536L204.679 186.895L202.118 190.46L205.205 192.677L212.997 181.83Z" fill="white"/>
<path d="M197.467 195.757L199.936 198.277L203.206 195.073L192.918 184.573L188.268 189.129C185.298 192.039 184.893 195.376 187.274 197.806C189.699 200.281 193.117 200.019 196.102 197.094L197.467 195.757ZM192.191 190.372L194.924 193.162L193.649 194.411C192.614 195.425 191.455 195.503 190.574 194.603C189.765 193.778 189.881 192.635 190.916 191.621L192.191 190.372Z" fill="white"/>
<path d="M164.522 205.547L172.506 209.887L171.772 218.336L176.247 215.883L176.218 209.888L177.691 209.081L180.225 213.703L184.239 211.502L177.173 198.612L173.159 200.812L175.702 205.453L174.34 206.2L168.905 203.144L164.522 205.547Z" fill="white"/>
<path d="M156.802 207.768C152.313 209.174 150.014 213.284 151.339 217.512C152.658 221.72 156.865 223.769 161.354 222.362C165.843 220.956 168.122 216.852 166.797 212.624C165.478 208.416 161.271 206.367 156.802 207.768ZM157.95 211.501C159.854 210.905 161.655 211.947 162.314 214.051C162.98 216.175 162.096 218.059 160.192 218.655C158.288 219.252 156.481 218.19 155.815 216.065C155.156 213.961 156.046 212.098 157.95 211.501Z" fill="white"/>
<path d="M130.289 219.652C130.557 222.917 133.609 225.195 138.205 224.966L138.345 226.682L142.761 226.32L142.621 224.604C147.192 224.081 149.831 221.315 149.562 218.029C149.294 214.764 146.22 212.488 141.646 212.716L141.505 210.999L137.089 211.362L137.23 213.078C132.679 213.599 130.019 216.366 130.289 219.652ZM144.791 218.442C144.896 219.718 144.084 220.86 142.339 221.171L141.927 216.148C143.699 216.171 144.687 217.165 144.791 218.442ZM137.921 221.513C136.129 221.491 135.164 220.517 135.057 219.219C134.953 217.942 135.746 216.824 137.513 216.531L137.921 221.513Z" fill="white"/>
<path d="M124.572 217.221L117.654 216.358L117.246 219.629L124.164 220.493L123.92 222.451L115.98 221.461L115.533 225.045L127.911 226.589L129.731 212.002L117.166 210.435L116.718 214.019L124.845 215.033L124.572 217.221Z" fill="white"/>
<path d="M97.7707 216.388L105.185 219.223L106.205 216.555L98.7907 213.72L97.7707 216.388ZM99.4882 211.896L106.903 214.731L107.923 212.064L100.508 209.229L99.4882 211.896Z" fill="white"/>
</svg>
