<svg width="109" height="118" viewBox="0 0 109 118" fill="none" xmlns="http://www.w3.org/2000/svg">
<path d="M96.6896 17.2077C96.2526 16.7707 95.7759 16.294 95.2991 15.857C94.9813 15.5789 94.6238 15.2611 94.2662 14.983C93.3525 14.2282 92.3593 13.5131 91.2867 12.8377C88.7044 11.1692 85.7248 9.65951 82.4275 8.38823C81.911 8.18959 81.5535 7.75259 81.4343 7.19641L81.3151 6.6005C81.1959 6.08404 80.8384 5.64704 80.3219 5.40867C73.171 2.50857 64.4707 0.800293 55.0553 0.800293C45.6399 0.800293 36.9396 2.50857 29.7886 5.40867C29.2722 5.60731 28.9146 6.04431 28.7954 6.6005L28.6762 7.19641C28.5571 7.71286 28.1995 8.18959 27.6831 8.38823C24.3857 9.65951 21.4061 11.1692 18.8239 12.8377C17.7512 13.5131 16.758 14.2282 15.8443 14.983C15.4868 15.2611 15.1292 15.5789 14.8114 15.857C14.3347 16.294 13.8579 16.731 13.4209 17.2077C13.0634 17.605 12.9045 18.1214 12.9839 18.6379L13.9771 23.4846L15.5265 31.1123C15.5662 31.3904 15.7251 31.6685 15.9238 31.8671C16.0032 31.9466 16.0429 32.026 16.1224 32.0658C16.5197 32.5028 16.9567 32.9398 17.3937 33.3768C18.069 34.0124 18.8239 34.6481 19.5787 35.244C19.8965 35.4823 20.0951 35.8001 20.1746 36.1974L21.5253 42.7922V42.8716L22.4788 47.5595L23.035 50.3007L25.7762 63.8874L26.5707 67.7807L27.5639 72.7069L28.1598 75.5673L34.8737 108.938L35.4696 111.958C35.5888 112.474 35.9066 112.871 36.3436 113.11C37.2971 113.586 38.33 113.984 39.3629 114.381C44.0905 116.129 49.414 117.162 55.0553 117.162C60.6966 117.162 66.0598 116.169 70.7476 114.381C71.7805 113.984 72.7737 113.586 73.7669 113.11C74.2436 112.911 74.5614 112.474 74.6409 111.958L75.2368 108.938L81.9507 75.5673L82.5466 72.7069L83.5398 67.7807L84.3344 63.8874L87.0756 50.3007L87.6317 47.5595L88.5852 42.8716V42.7922L89.9359 36.1974C90.0154 35.8399 90.214 35.4823 90.5318 35.244C91.3264 34.6481 92.0415 34.0124 92.7169 33.3768C93.1539 32.9398 93.5909 32.5425 93.9881 32.0658C94.0676 31.9863 94.1073 31.9069 94.1868 31.8671C94.3854 31.6685 94.5046 31.3904 94.584 31.1123L96.1334 23.4846L97.1266 18.6379C97.1663 18.5187 97.1663 18.4393 97.1663 18.3201C97.1266 17.8831 96.9677 17.4858 96.6896 17.2077ZM22.5582 31.1918C22.3993 30.5164 22.7569 29.8013 23.3528 29.4438C23.6706 29.2848 23.9487 29.1259 24.2665 28.967C32.3709 24.8354 43.1768 22.3326 55.0155 22.3326C66.8543 22.3326 77.6602 24.8354 85.7646 28.967C86.0824 29.1259 86.4002 29.2848 86.6783 29.4438C87.3139 29.7616 87.6317 30.4767 87.4728 31.1918L86.8372 34.37L86.3605 36.7536C83.3015 39.0578 79.6863 40.9647 73.5285 41.799C65.2255 42.9114 60.8157 40.8455 56.1279 38.6605C51.2812 36.3961 46.2358 34.0521 37.0587 35.2837C31.1394 36.0782 27.2858 37.8262 24.2268 39.9318L23.909 38.2633L23.1144 34.4097L22.5582 31.1918ZM83.8576 49.3472L83.2617 52.4062L80.6 65.5957L79.8452 69.2904L79.6465 70.2836L79.0506 73.2631L71.6613 109.852C71.5421 110.408 71.1449 110.845 70.6284 111.044C65.9406 112.792 60.6568 113.785 55.0155 113.785C49.414 113.785 44.0905 112.792 39.4027 111.044C38.8862 110.845 38.4889 110.408 38.3697 109.852L30.9804 73.2631L30.3845 70.2836L30.1859 69.2904L29.4311 65.5957L26.7693 52.4062L26.1734 49.3472L25.3391 45.2155L24.9021 43.0703C27.9214 40.8455 31.5366 38.9783 37.4957 38.1838C45.7988 37.0714 50.2085 39.1373 54.8963 41.3223C59.7431 43.5867 64.7885 45.9306 73.9655 44.6991C79.0903 44.0237 82.6658 42.5935 85.5262 40.8853L84.6522 45.1758L83.8576 49.3472ZM91.7634 26.782C91.525 27.8944 90.2538 28.4506 89.3003 27.8149C88.9825 27.5766 88.6249 27.3779 88.2674 27.1396C87.2742 26.5039 86.2413 25.908 85.1686 25.3518C77.2232 21.2202 66.6557 19.0749 55.0553 19.0749C43.4549 19.0749 32.8874 21.1805 24.9419 25.3518C23.8692 25.908 22.8363 26.5039 21.8431 27.1396C21.4856 27.3779 21.1678 27.5766 20.8102 27.8149C19.8568 28.4506 18.5855 27.9341 18.3471 26.782L16.8772 18.5982C17.7512 17.7242 18.7444 17.2474 19.7773 16.4529C22.002 14.7446 24.6241 13.3542 27.5242 12.0432C35.0724 8.54714 44.6069 6.67995 55.0155 6.67995C65.4241 6.67995 74.9587 8.54714 82.5069 12.0432C85.407 13.3939 88.029 14.7446 90.2538 16.4529C91.2867 17.2474 92.2799 17.7242 93.1539 18.5982L91.7634 26.782Z" fill="#FF9F0B" fill-opacity="0.91"/>
<path d="M48.897 76.3618L45.6394 84.2676L51.678 78.229V87.1677L55.0945 78.8646L58.3919 86.7704V78.229L64.7483 84.5457L61.2523 76.2824L69.1977 79.54L63.1195 73.4617H72.0979L63.7948 70.0849L71.7006 66.7875H63.1195L69.4758 60.4311L61.2125 63.9271L64.4305 55.9816L58.3919 62.0202V53.0815L55.0151 61.3846L51.678 53.4788V62.0202L45.3613 55.7036L48.8176 63.9669L40.9118 60.7092L46.9504 66.7875H38.0117L46.275 70.1643L38.409 73.4617H46.9504L40.6337 79.8181L48.897 76.3618Z" fill="#FF9F0B" fill-opacity="0.91"/>
<path d="M86.8364 103.973C86.5186 103.973 86.2008 103.655 85.883 103.059C85.5652 102.463 85.4062 101.788 85.4062 101.033C85.4062 99.8809 85.6446 98.7685 86.2008 97.6959C86.7173 96.6232 87.3529 95.6698 88.1474 94.9149C88.942 94.1601 89.7763 93.5642 90.69 93.0875C91.6037 92.6505 92.4777 92.4121 93.2723 92.4121C93.7887 92.4121 94.2257 92.4916 94.623 92.6107C94.7422 92.6505 94.7819 92.7299 94.7819 92.8094C94.7819 93.0875 94.6627 93.445 94.4244 93.8423C94.186 94.2396 93.8682 94.5971 93.4709 94.9149C93.2325 95.0739 92.7955 95.3519 92.1599 95.7095C91.5243 96.067 91.127 96.3054 90.9284 96.4643C89.816 97.2191 88.9023 98.2918 88.1474 99.7617C87.3926 101.232 86.9953 102.543 86.9953 103.695C86.9556 103.893 86.9159 103.973 86.8364 103.973ZM88.8625 104.767C88.3858 104.767 88.068 104.688 87.9091 104.529C87.8296 104.489 87.7899 104.45 87.7899 104.37L87.7502 104.251L87.7899 104.132C87.9091 103.417 88.1077 102.741 88.4255 102.145C88.7036 101.549 89.0612 101.033 89.4982 100.516C89.8557 100.079 90.69 99.285 91.9613 98.1329C93.2723 96.9808 94.0271 96.2657 94.2257 95.9876C94.8614 95.2328 95.3778 94.4382 95.6559 93.5642C95.6956 93.445 95.7354 93.3656 95.8148 93.2861C95.8546 93.2861 95.8943 93.3258 96.0135 93.445C96.4505 93.882 96.7286 94.2793 96.8875 94.6368C97.0464 94.9944 97.1258 95.3917 97.1258 95.8684C97.1258 96.7424 96.8477 97.7356 96.2916 98.7685C95.6956 99.9206 94.9806 100.954 94.1463 101.828C93.2723 102.741 92.3983 103.456 91.5243 103.973C91.127 104.171 90.69 104.37 90.1735 104.489C89.6968 104.688 89.2598 104.767 88.8625 104.767Z" fill="#FF9F0B" fill-opacity="0.91"/>
<path d="M1.38248 57.0938C1.38248 56.6966 1.74003 56.339 2.45512 55.9815C3.17021 55.6239 3.92504 55.4253 4.79904 55.4253C6.14977 55.4253 7.42105 55.7431 8.69233 56.339C9.96361 56.9349 11.0362 57.6898 11.9102 58.6035C12.7842 59.5172 13.4993 60.4707 14.0158 61.5433C14.5323 62.616 14.8103 63.6091 14.8103 64.5626C14.8103 65.1585 14.7309 65.675 14.572 66.1517C14.5323 66.2709 14.4528 66.3503 14.3336 66.3503C14.0158 66.3503 13.6185 66.1914 13.1418 65.9133C12.6651 65.6352 12.2678 65.238 11.9102 64.801C11.7116 64.5229 11.3938 64.0064 10.9965 63.2913C10.5992 62.5762 10.2814 62.0995 10.1622 61.8611C9.32797 60.5899 8.01696 59.5172 6.30868 58.6432C4.6004 57.7692 3.09076 57.3322 1.74003 57.3322C1.46193 57.2528 1.38248 57.1733 1.38248 57.0938ZM0.46875 59.398C0.46875 58.8419 0.548204 58.4843 0.746841 58.2857C0.786568 58.2062 0.866023 58.1665 0.945478 58.1665L1.06466 58.1268L1.22357 58.1665C2.05785 58.2857 2.85239 58.524 3.52776 58.8816C4.20313 59.1994 4.83877 59.5967 5.43468 60.1131C5.95113 60.5104 6.86487 61.5036 8.17587 62.9735C9.5266 64.5229 10.3609 65.3969 10.639 65.6352C11.513 66.3901 12.4664 66.9462 13.4596 67.3038C13.5788 67.3435 13.698 67.3832 13.7774 67.4627C13.7774 67.5024 13.698 67.5819 13.5788 67.7011C13.0623 68.2175 12.6253 68.5353 12.1883 68.734C11.7911 68.9326 11.3143 69.0121 10.7582 69.0121C9.72524 69.0121 8.61287 68.6943 7.38132 68.0586C6.03059 67.3435 4.87849 66.549 3.84558 65.5558C2.81267 64.5626 1.97839 63.5297 1.34275 62.5365C1.10439 62.0995 0.90575 61.583 0.746841 60.9871C0.548204 60.3912 0.46875 59.8748 0.46875 59.398Z" fill="#FF9F0B" fill-opacity="0.91"/>
<path d="M90.0547 63.3712C90.0547 63.3712 94.3453 63.3712 97.0864 66.0727C99.7879 68.7741 99.3509 74.3757 99.3509 74.3757H99.3906C99.3906 74.3757 98.9536 68.8139 101.655 66.0727C104.357 63.3712 108.687 63.3712 108.687 63.3712C108.687 63.3712 104.396 63.3712 101.655 60.6697C98.9536 57.9683 99.3906 52.3667 99.3906 52.3667H99.3509C99.3509 52.3667 99.7879 57.9285 97.0864 60.6697C94.385 63.3712 90.0547 63.3712 90.0547 63.3712Z" fill="#FF9F0B" fill-opacity="0.91"/>
<path d="M10.6787 98.6093C10.6787 98.6093 14.2939 98.6093 16.5584 100.874C18.8228 103.138 18.4653 107.826 18.4653 107.826H18.505C18.505 107.826 18.1475 103.138 20.4119 100.874C22.6764 98.6093 26.2916 98.6093 26.2916 98.6093C26.2916 98.6093 22.6764 98.6093 20.4119 96.3449C18.1475 94.0804 18.505 89.3926 18.505 89.3926H18.4653C18.4653 89.3926 18.8228 94.0804 16.5584 96.3449C14.2939 98.6093 10.6787 98.6093 10.6787 98.6093Z" fill="#FF9F0B" fill-opacity="0.91"/>
</svg>
