<svg width="135" height="79" viewBox="0 0 135 79" fill="none" xmlns="http://www.w3.org/2000/svg">
<path d="M119.352 30.2948C111.18 30.2948 104.555 23.67 104.555 15.4979C104.555 7.32581 111.18 0.70105 119.352 0.70105C127.524 0.70105 134.149 7.32581 134.149 15.4979C134.149 23.67 127.524 30.2948 119.352 30.2948Z" fill="#A7CCC3"/>
<path d="M0.753524 63.0087C-0.296817 56.9931 3.04518 50.5956 8.48785 47.922C13.9305 45.3439 21.0919 46.7761 25.1023 51.3595C28.2533 40.1877 36.9425 31.212 46.9685 25.5784C56.517 20.2312 68.8347 17.5576 78.3833 22.9048C88.6002 28.5384 92.6106 41.1425 94.6158 52.6008C95.3797 56.8976 95.857 61.6719 93.3744 65.3003C90.1279 70.0746 83.5394 70.552 77.8103 70.6475C61.1003 70.934 44.3904 71.125 27.6804 71.4114C18.8003 71.5069 9.15625 71.4114 2.2813 65.8733" fill="#A7CCC3"/>
<path d="M7.17032 70.0763C6.16169 64.2865 9.38622 58.1083 14.6302 55.5305C19.8725 53.0492 26.7902 54.4345 30.6511 58.8469L31.2583 59.5409L31.5086 58.6534C34.6138 47.6442 43.1915 38.7617 53.1385 33.1725C62.6249 27.8603 74.7395 25.2776 84.064 30.4993L84.0669 30.5008C94.0596 36.0109 98.0432 48.3874 100.048 59.8451L100.049 59.8465C100.815 64.1577 101.241 68.7349 98.8868 72.1762L98.886 72.1774C97.3536 74.4309 95.0204 75.6934 92.3213 76.4031C89.6156 77.1145 86.5892 77.2581 83.727 77.3058L83.7268 77.3058C75.3738 77.449 67.0207 77.5683 58.6668 77.6877L58.6633 77.6877C50.3088 77.8071 41.9535 77.9264 33.5981 78.0697C32.2031 78.0847 30.6272 78.1724 28.972 78.2645C27.9842 78.3194 26.9681 78.376 25.9454 78.4196C23.1868 78.5372 20.3421 78.5636 17.7138 78.2336C15.0825 77.9033 12.7085 77.2201 10.8656 75.9481C9.04025 74.6883 7.70604 72.8309 7.17032 70.0763Z" stroke="#2C2C2C"/>
</svg>
