<svg width="139" height="36" viewBox="0 0 139 36" fill="none" xmlns="http://www.w3.org/2000/svg">
<path d="M17.8007 14.5595L18.0587 21.0884H11.6092L11.9531 15.2292L11.7811 5.687H6.44953L6.19153 14.5595L6.44953 21.0884H0L0.34397 15.2292L0 0.999634H18.1447L17.8007 14.5595Z" fill="#58595B"/>
<path d="M37.7276 3.09737C39.3335 4.90091 40.1788 7.3915 40.1788 10.5692C40.1788 14.1762 39.3335 16.9245 37.5585 18.8139C35.7835 20.7892 33.2477 21.7339 30.0358 21.7339C27.0774 21.7339 24.7953 20.8751 23.1893 19.0716C21.5833 17.268 20.738 14.6915 20.738 11.428C20.738 7.9068 21.5833 5.15855 23.3583 3.26913C25.1333 1.37971 27.6691 0.349121 30.881 0.349121C33.8394 0.435004 36.1216 1.29383 37.7276 3.09737ZM28.5143 5.9315C28.0917 6.18915 27.8381 6.70444 27.5846 7.47738C27.4155 8.16444 27.331 9.28093 27.331 10.6551C27.331 12.4586 27.4155 13.7468 27.5846 14.6915C27.7536 15.6363 28.0917 16.2374 28.5143 16.581C28.937 16.9245 29.6132 17.0963 30.5429 17.0963C31.3882 17.0963 31.9799 16.9245 32.4025 16.6668C32.8251 16.4092 33.0787 15.8939 33.3323 15.121C33.5013 14.348 33.5858 13.3174 33.5858 11.9433C33.5858 10.2256 33.5013 8.85151 33.3323 7.99268C33.1632 7.04797 32.8251 6.4468 32.4025 6.10326C31.9799 5.75973 31.3037 5.58796 30.3739 5.58796C29.5286 5.50208 28.937 5.67385 28.5143 5.9315Z" fill="#58595B"/>
<path d="M65.45 21.0884H59.9115L59.8275 14.9781L59.4919 9.95587H59.0723L55.7995 19.1632H51.1002L48.4988 9.95587H48.0792L47.6596 14.3921L47.3239 21.0884H42.1211L44.1351 0.999634H51.268L51.8554 3.84554L53.7016 11.1277H54.0373L55.9674 4.09665L56.7226 0.999634H63.8555L65.45 21.0884Z" fill="#58595B"/>
<path d="M84.9511 3.09737C86.6106 4.90091 87.484 7.3915 87.484 10.5692C87.484 14.1762 86.6106 16.9245 84.7764 18.8139C82.9422 20.7892 80.3219 21.7339 77.0029 21.7339C73.9459 21.7339 71.5877 20.8751 69.9282 19.0716C68.2687 17.268 67.3953 14.6915 67.3953 11.428C67.3953 7.9068 68.2687 5.15855 70.1029 3.26913C71.9371 1.37971 74.5573 0.349121 77.8764 0.349121C80.9333 0.435004 83.2916 1.29383 84.9511 3.09737ZM75.4308 5.9315C74.9941 6.18915 74.732 6.70444 74.47 7.47738C74.2953 8.16444 74.208 9.28093 74.208 10.6551C74.208 12.4586 74.2953 13.7468 74.47 14.6915C74.6447 15.6363 74.9941 16.2374 75.4308 16.581C75.8675 16.9245 76.5662 17.0963 77.527 17.0963C78.4004 17.0963 79.0118 16.9245 79.4485 16.6668C79.8852 16.4092 80.1473 15.8939 80.4093 15.121C80.584 14.348 80.6713 13.3174 80.6713 11.9433C80.6713 10.2256 80.584 8.85151 80.4093 7.99268C80.2346 7.04797 79.8852 6.4468 79.4485 6.10326C79.0118 5.75973 78.3131 5.58796 77.3523 5.58796C76.4789 5.50208 75.8675 5.67385 75.4308 5.9315Z" fill="#58595B"/>
<path d="M118.588 16.019V25.2847L114.095 25.6186L113.247 21.0275H89.4265L89.7656 15.1843L89.4265 0.993652H95.8691L95.53 14.5165V16.019H99.7685L99.8533 15.1843L99.5142 0.993652H105.957L105.618 14.5165L105.702 16.019H109.856L109.941 15.1843L109.602 0.993652H116.044L115.705 14.5165V16.019H118.588Z" fill="#58595B"/>
<path d="M136.344 9.36995C137.439 10.3744 138.029 11.7136 138.029 13.5551C138.029 15.0618 137.607 16.401 136.849 17.5729C136.091 18.661 134.996 19.5817 133.564 20.1677C132.132 20.7536 130.447 21.0884 128.509 21.0884H121.18L121.517 15.2292L121.18 0.999634H127.498L127.33 8.03071H131.373C133.564 7.8633 135.164 8.36551 136.344 9.36995ZM130.952 15.8988C131.205 15.4803 131.373 14.9781 131.373 14.3921C131.373 13.7225 131.205 13.1366 130.784 12.8018C130.362 12.3833 129.857 12.2159 129.183 12.2159L127.161 12.2996L127.077 14.5595L127.161 16.6521L129.688 16.8195C130.278 16.5684 130.699 16.3173 130.952 15.8988Z" fill="#58595B"/>
<path d="M24.2994 31.8638C24.5424 32.0523 24.6234 32.4293 24.6234 32.9006C24.6234 33.4662 24.4614 33.8432 24.1374 34.2202C23.8134 34.503 23.3274 34.6915 22.6794 34.6915H21.3833L21.4643 33.1834L21.3833 29.5073H24.4614L24.5424 29.6016L24.4614 30.3556H23.3274H22.3553V31.581H23.3274C23.6514 31.581 24.0564 31.6753 24.2994 31.8638ZM23.4894 33.6547C23.5704 33.4662 23.6514 33.2776 23.6514 33.0891C23.6514 32.8063 23.5704 32.6178 23.4894 32.5236C23.3274 32.4293 23.1654 32.3351 22.9224 32.3351H22.2743V32.9949V33.8432H22.9224C23.1654 33.8432 23.3274 33.7489 23.4894 33.6547Z" fill="#58595B"/>
<path d="M28.4258 32.9326V34.5064H27.3889L27.4753 33.0252V30.2479H26.6113V30.6182C26.5249 31.6365 26.3521 32.4697 26.2657 33.0252C26.1793 33.5806 26.0065 33.9509 25.8337 34.2286C25.6609 34.5064 25.4017 34.5989 25.056 34.6915H24.7968L24.624 33.8583C24.8832 33.7658 25.056 33.6732 25.1424 33.3955C25.3153 33.2103 25.4017 32.84 25.4881 32.3771C25.5745 31.9143 25.6609 31.2663 25.7473 30.4331L25.8337 29.5073H28.5122L28.4258 32.9326Z" fill="#58595B"/>
<path d="M33.6963 34.5973H32.7035L32.6208 33.9375L32.5381 33.4662H31.6281H30.8836L30.8008 33.9375L30.7181 34.6915H29.8081L31.3799 29.5073H32.5381L33.6963 34.5973ZM32.2899 32.5236L31.7936 30.3557H31.7108L31.049 32.5236H31.6281H32.2899Z" fill="#58595B"/>
<path d="M36.9388 29.6016L36.8552 30.3556H35.9354H35.3501L35.2665 32.9949L35.3501 34.6915H34.3467L34.4303 33.0891L34.3467 29.5073H36.9388V29.6016Z" fill="#58595B"/>
<path d="M40.9293 30.0434C41.2922 30.5082 41.4737 31.066 41.4737 31.9026C41.4737 32.7393 41.2922 33.483 40.8386 33.9478C40.385 34.4126 39.8406 34.6915 39.1149 34.6915C38.3891 34.6915 37.8447 34.5056 37.4818 34.0408C37.119 33.576 36.9375 32.9252 36.9375 32.1815C36.9375 31.3449 37.119 30.6941 37.5726 30.2293C38.0262 29.7645 38.5705 29.5786 39.2963 29.5786C39.9314 29.3926 40.4757 29.5786 40.9293 30.0434ZM38.2984 30.6941C38.1169 30.973 38.0262 31.3449 38.0262 31.9956C38.0262 32.6463 38.1169 33.2041 38.2984 33.483C38.4798 33.7619 38.752 33.9478 39.2056 33.9478C39.6592 33.9478 39.9314 33.8549 40.1128 33.576C40.2943 33.2971 40.385 32.8323 40.385 32.2745C40.385 31.6238 40.2943 31.1589 40.1128 30.8801C39.9314 30.6012 39.6592 30.4152 39.2056 30.4152C38.752 30.2293 38.4798 30.4152 38.2984 30.6941Z" fill="#58595B"/>
<path d="M44.7135 29.6016L44.6325 30.3556H43.8225H43.5794L43.4985 32.9949L43.5794 34.6915H42.6074L42.6884 33.0891L42.6074 30.3556H42.3644H41.4734V30.2614V29.5073H44.6325L44.7135 29.6016Z" fill="#58595B"/>
<path d="M48.3592 32.4293C48.5212 32.6178 48.6022 32.9006 48.6022 33.1834C48.6022 34.2202 47.9542 34.6915 46.5771 34.6915C46.1721 34.6915 45.7671 34.6915 45.3621 34.6915L45.4431 33.1834L45.3621 29.5073H46.9821C47.4681 29.5073 47.7921 29.6016 48.0352 29.8844C48.2782 30.0729 48.4402 30.4499 48.4402 30.8269C48.4402 31.1097 48.3592 31.3925 48.2782 31.581C48.1972 31.7695 47.9542 31.958 47.7922 32.0523C48.0352 32.0523 48.1972 32.2408 48.3592 32.4293ZM47.3871 33.7489C47.5491 33.6547 47.6301 33.4662 47.6301 33.1834C47.6301 32.8064 47.3871 32.5236 46.9821 32.4293H46.2531V32.9949V33.8432C46.4151 33.8432 46.5771 33.8432 46.7391 33.8432C46.9821 33.9374 47.2251 33.8432 47.3871 33.7489ZM47.2251 30.4499C47.1441 30.3556 46.9011 30.2614 46.5771 30.2614H46.2531V31.6752H46.9011C47.0631 31.581 47.2251 31.581 47.3061 31.3925C47.3871 31.2982 47.4681 31.1097 47.4681 30.9212C47.3871 30.6384 47.3871 30.5442 47.2251 30.4499Z" fill="#58595B"/>
<path d="M53.2423 30.0434C53.6052 30.5082 53.7867 31.066 53.7867 31.9026C53.7867 32.7393 53.6052 33.483 53.1516 33.9478C52.698 34.4126 52.1536 34.6915 51.4278 34.6915C50.7021 34.6915 50.1577 34.5056 49.7948 34.0408C49.4319 33.576 49.2505 32.9252 49.2505 32.1815C49.2505 31.3449 49.4319 30.6941 49.8855 30.2293C50.3392 29.7645 50.8835 29.5786 51.6093 29.5786C52.2443 29.3926 52.7887 29.5786 53.2423 30.0434ZM50.6113 30.6941C50.4299 30.973 50.3392 31.3449 50.3392 31.9956C50.3392 32.6463 50.4299 33.2041 50.6113 33.483C50.7928 33.7619 51.065 33.9478 51.5186 33.9478C51.9722 33.9478 52.2444 33.8549 52.4258 33.576C52.6073 33.2971 52.698 32.8323 52.698 32.2745C52.698 31.6238 52.6073 31.1589 52.4258 30.8801C52.2444 30.6012 51.9722 30.4152 51.5186 30.4152C51.065 30.2293 50.7928 30.4152 50.6113 30.6941Z" fill="#58595B"/>
<path d="M57.2593 29.9197C57.5085 30.1671 57.6747 30.497 57.6747 30.9094C57.6747 31.2393 57.5916 31.5692 57.4254 31.8167C57.2593 32.0641 57.0931 32.3115 56.7608 32.394C56.5116 32.5589 56.1792 32.6414 55.7638 32.6414H55.3484L55.4315 34.0435H54.4346L54.5176 32.7239L54.4346 29.5073H56.1792C56.6777 29.5898 57.0101 29.6723 57.2593 29.9197ZM56.6777 31.0744C56.6777 30.8269 56.5947 30.662 56.5116 30.497C56.3454 30.3321 56.1792 30.3321 55.93 30.3321H55.4315V31.9816H56.0962C56.4285 31.8166 56.6777 31.4867 56.6777 31.0744Z" fill="#58595B"/>
<path d="M59.0534 33.0891L58.9707 29.5073H59.9634L59.8807 32.9949H59.9634L61.8661 29.5073H62.8589L62.7761 32.9949L62.8589 34.6915H61.8661L61.9489 33.0891V31.1097H61.8661L59.9634 34.6915H58.9707L59.0534 33.0891Z" fill="#58595B"/>
<path d="M66.747 29.6016L66.6679 30.3556H65.8777H65.5615V32.9949V34.6915H64.6922V33.0891V30.3556H64.3761H63.5859L63.5068 30.2614L63.5859 29.5073H66.6679L66.747 29.6016Z" fill="#58595B"/>
<path d="M70.5454 33.7489L70.6354 33.8432L70.5454 34.6915H67.3953L67.4852 33.0891L67.3953 29.5073H70.5454L70.6354 29.6016L70.5454 30.3556H69.3753H68.4753V31.581H69.2853H70.0954L70.1854 31.6752L70.0954 32.5236L69.1953 32.4293H68.4753V32.9949V33.8432H69.2853L70.5454 33.7489Z" fill="#58595B"/>
<path d="M74.4356 32.9326V34.5064H73.3987L73.4851 33.0252V30.2479H72.6211V30.6182C72.5347 31.6365 72.3619 32.4697 72.2755 33.0252C72.1891 33.5806 72.0163 33.9509 71.8435 34.2286C71.6706 34.5064 71.4114 34.5989 71.0658 34.6915H70.8066L70.6338 33.8583C70.893 33.7658 71.0658 33.6732 71.1522 33.3955C71.325 33.2103 71.4114 32.84 71.4978 32.3771C71.5842 31.9143 71.6706 31.2663 71.757 30.4331L71.8435 29.5073H74.5219L74.4356 32.9326Z" fill="#58595B"/>
<path d="M78.7257 31.8638C78.9749 32.1466 79.058 32.4293 79.058 32.9006C79.058 33.4662 78.8918 33.9375 78.5595 34.2202C78.2272 34.503 77.7287 34.6915 77.1471 34.6915H75.8179L75.901 33.1834L75.8179 29.5073H76.8148V31.4867H77.7287C78.061 31.4867 78.4764 31.581 78.7257 31.8638ZM77.8949 33.6547C77.9779 33.4662 78.061 33.2776 78.061 33.0891C78.061 32.8063 77.9779 32.6178 77.8949 32.5236C77.8118 32.4293 77.5626 32.3351 77.3964 32.3351H76.7318V33.0891V33.9375H77.3964C77.5626 33.8432 77.7287 33.7489 77.8949 33.6547Z" fill="#58595B"/>
<path d="M84.1576 32.9949L84.2422 34.6915H83.2278L83.3124 33.0891L83.2278 32.5236H82.2135H81.2838V32.9949V34.6915H80.354V33.0891V29.5073H81.2838V31.581L82.2981 31.6752L83.2278 31.581V29.5073H84.2422L84.1576 32.9949Z" fill="#58595B"/>
<path d="M87.9449 31.9143C88.2226 32.192 88.3152 32.4697 88.3152 32.9326C88.3152 33.488 88.13 33.9509 87.7597 34.2286C87.3894 34.5064 86.9265 34.6915 86.2785 34.6915H84.8899L84.9825 33.2103L84.8899 29.5999H86.0008V31.544H86.9265C87.2968 31.544 87.6671 31.6366 87.9449 31.9143ZM87.0191 33.6732C87.1117 33.488 87.2043 33.3029 87.2043 33.1177C87.2043 32.84 87.1117 32.6549 87.0191 32.5623C86.9265 32.4697 86.7414 32.3771 86.4637 32.3771H85.9082V33.1177V33.9509H86.5562C86.7414 33.8583 86.9265 33.7658 87.0191 33.6732ZM89.9815 33.0252L90.0741 34.5989H88.9632L89.0558 33.1177L88.9632 29.5073H90.0741L89.9815 33.0252Z" fill="#58595B"/>
<path d="M90.8896 33.1664L90.8069 29.7463L91.7996 29.6562L91.7168 33.0764H91.7996L93.6195 29.7463H94.6123L94.5295 33.1664V34.6964H93.5368L93.6195 33.2564V31.3663H93.5368L91.7168 34.6964H90.7241L90.8896 33.1664ZM93.9505 28.5762C93.8677 28.8462 93.7023 29.0262 93.4541 29.1162C93.2059 29.2062 92.9577 29.2962 92.6268 29.2962C92.2959 29.2962 92.0478 29.2062 91.8823 29.1162C91.6341 29.0262 91.4687 28.8462 91.3859 28.5762L91.8823 28.2162H91.965C92.0477 28.3962 92.1305 28.4862 92.2132 28.5762C92.2959 28.6662 92.4614 28.6662 92.6268 28.6662C92.7923 28.6662 92.9577 28.6662 93.0405 28.5762C93.1232 28.4862 93.2059 28.3962 93.2886 28.2162H93.3714L93.9505 28.5762Z" fill="#58595B"/>
<path d="M101.823 33.3735C101.447 33.725 100.789 33.9007 100.036 33.9886V34.6915H99.0014V34.0764C98.2489 33.9886 97.5904 33.8129 97.2142 33.5492C96.8379 33.1978 96.5557 32.7584 96.5557 32.1434C96.5557 31.5283 96.7438 31.0011 97.1201 30.6496C97.4963 30.2981 98.1548 30.1224 98.9074 30.0345V29.5073H99.9421V30.0345C101.541 30.1224 102.388 30.8253 102.388 31.9676C102.388 32.4948 102.2 33.022 101.823 33.3735ZM97.9667 32.8463C98.1548 33.022 98.5311 33.1978 99.0014 33.1978V32.9342V30.6496C98.5311 30.7375 98.1548 30.8253 97.9667 31.0011C97.7785 31.1768 97.5904 31.5283 97.5904 31.8798C97.5904 32.3191 97.7785 32.6706 97.9667 32.8463ZM101.071 32.8463C101.259 32.6706 101.447 32.3191 101.447 31.9676C101.447 31.5283 101.353 31.2647 101.165 31.0889C100.977 30.9132 100.601 30.7375 100.13 30.7375V32.9342V33.2856C100.507 33.1978 100.789 33.022 101.071 32.8463Z" fill="#58595B"/>
<path d="M106.379 30.0434C106.742 30.5082 106.923 31.066 106.923 31.9026C106.923 32.7393 106.742 33.483 106.288 33.9478C105.834 34.4126 105.29 34.6915 104.564 34.6915C103.839 34.6915 103.294 34.5056 102.931 34.0408C102.568 33.576 102.387 32.9252 102.387 32.1815C102.387 31.3449 102.568 30.6941 103.022 30.2293C103.476 29.7645 104.02 29.5786 104.746 29.5786C105.472 29.3926 106.016 29.5786 106.379 30.0434ZM103.839 30.6941C103.657 30.973 103.566 31.3449 103.566 31.9956C103.566 32.6463 103.657 33.2041 103.839 33.483C104.02 33.7619 104.292 33.9478 104.746 33.9478C105.199 33.9478 105.472 33.8549 105.653 33.576C105.834 33.2971 105.925 32.8323 105.925 32.2745C105.925 31.6238 105.834 31.1589 105.653 30.8801C105.472 30.6012 105.199 30.4152 104.746 30.4152C104.292 30.2293 104.02 30.4152 103.839 30.6941Z" fill="#58595B"/>
<path d="M111.375 32.9949L111.459 34.6915H110.445L110.53 33.0891V32.5236H109.431H108.501V32.9949V34.6915H107.571L107.656 33.0891L107.571 29.5073H108.586L108.501 31.581L109.515 31.6752L110.53 31.581L110.445 29.5073H111.459L111.375 32.9949Z" fill="#58595B"/>
<path d="M117.291 33.4553V35.2498L116.458 35.3395L116.273 34.2628H113.033L112.94 35.2498L112.107 35.3395V33.4553H112.57C112.755 33.3656 112.94 33.1861 113.126 33.0067C113.218 32.8272 113.311 32.4683 113.403 32.1094C113.496 31.6608 113.588 31.1224 113.681 30.4046L113.774 29.5073H116.643L116.551 32.9169V33.6347H117.291V33.4553ZM115.625 33.4553V32.8272V30.1354H114.699V30.4943C114.607 31.3916 114.514 32.0197 114.329 32.4683C114.236 32.9169 114.051 33.2758 113.774 33.4553H115.625Z" fill="#58595B"/>
<path d="M18.7927 31.4563H0V32.1043H18.7927V31.4563Z" fill="#58595B"/>
<path d="M138.029 31.4563H119.237V32.1043H138.029V31.4563Z" fill="#58595B"/>
</svg>
