<svg width="54" height="73" viewBox="0 0 54 73" fill="none" xmlns="http://www.w3.org/2000/svg">
<path d="M52.9872 10.1776C52.7121 9.89357 52.418 9.61905 52.1145 9.354C51.9058 9.17414 51.6876 8.98482 51.4695 8.80496C50.9003 8.34111 50.2837 7.8962 49.6197 7.47022C48.0166 6.42894 46.1764 5.51072 44.1369 4.72502C43.8239 4.60196 43.5962 4.32744 43.5203 3.99612L43.4445 3.62694C43.3781 3.29562 43.1504 3.0211 42.8374 2.89804C38.398 1.09946 33.0006 0.0487061 27.1668 0.0487061C21.333 0.0487061 15.9356 1.09946 11.4962 2.89804C11.1832 3.0211 10.9555 3.29562 10.8891 3.62694L10.8132 3.99612C10.7468 4.32744 10.5192 4.60196 10.1966 4.72502C8.15719 5.51072 6.31694 6.4384 4.71384 7.47022C4.05931 7.8962 3.44274 8.34111 2.8641 8.80496C2.64593 8.98482 2.42775 9.16468 2.21906 9.354C1.91552 9.62852 1.62146 9.90304 1.34637 10.1776C1.11871 10.4142 1.01436 10.7455 1.08077 11.0674L1.68786 14.0587L2.64593 18.7918C2.68387 18.9717 2.76924 19.1326 2.88307 19.2651C2.92102 19.3125 2.95896 19.3503 3.00639 19.3977C3.25302 19.6722 3.51862 19.9372 3.79371 20.2023C4.22057 20.6093 4.67589 20.9974 5.15967 21.3666C5.34939 21.5181 5.48219 21.7169 5.52962 21.9535L6.02288 24.3958C6.04185 24.5094 6.15568 24.5946 6.26951 24.5851C6.8102 24.5473 7.34141 24.5 7.8821 24.4621C8.02439 24.4526 8.12873 24.3201 8.10028 24.1781L7.90107 23.1936L7.4173 20.7987L7.01889 18.8297C6.93352 18.4037 7.13272 17.9588 7.52164 17.76C7.71136 17.6559 7.90107 17.5612 8.09079 17.4666C13.1278 14.9107 19.8153 13.3582 27.1668 13.3582C34.5183 13.3582 41.2058 14.9107 46.2428 17.4666C46.4325 17.5612 46.6222 17.6653 46.8119 17.76C47.2008 17.9683 47.4 18.4037 47.3147 18.8297L46.9163 20.7987L46.4325 23.1936L46.2333 24.1781C46.2048 24.3201 46.3092 24.4526 46.4515 24.4621C46.9922 24.5 47.5234 24.5378 48.064 24.5851C48.1874 24.5946 48.2917 24.5094 48.3107 24.3958L48.8039 21.9535C48.8514 21.7169 48.9842 21.5181 49.1739 21.3666C49.6577 20.988 50.113 20.5999 50.5398 20.2023C50.8149 19.9372 51.0805 19.6722 51.3272 19.3977C51.3651 19.3503 51.4125 19.3125 51.4505 19.2651C51.5738 19.1326 51.6592 18.9717 51.6876 18.7918L52.6457 14.0587L53.2528 11.0674C53.2623 11.0011 53.2718 10.9349 53.2718 10.8686C53.2718 10.613 53.1674 10.3669 52.9872 10.1776ZM49.9328 16.1223C49.7905 16.8134 48.9842 17.1542 48.4055 16.7566C48.1969 16.6146 47.9882 16.4821 47.7795 16.3401C47.1724 15.952 46.5273 15.5828 45.8539 15.2325C40.9212 12.6766 34.3665 11.3608 27.1763 11.3608C19.986 11.3608 13.4313 12.6766 8.49868 15.2325C7.82519 15.5828 7.18015 15.952 6.57306 16.3401C6.35488 16.4726 6.1462 16.6146 5.94699 16.7566C5.35887 17.1542 4.55258 16.8228 4.41978 16.1223L3.53759 11.181C3.52811 11.1053 3.54708 11.0201 3.60399 10.9633C4.12572 10.471 4.69486 10.1965 5.31144 9.72318C6.69637 8.6535 8.31845 7.81101 10.1208 6.97798C14.7973 4.81968 20.7259 3.6648 27.1763 3.6648C33.6266 3.6648 39.5553 4.82915 44.2318 6.97798C46.0341 7.81101 47.6562 8.6535 49.0411 9.72318C49.6577 10.1965 50.2268 10.471 50.7485 10.9633C50.8055 11.0201 50.8339 11.0958 50.8149 11.181L49.9328 16.1223ZM37.4779 67.505C37.4115 67.8458 37.1648 68.1203 36.8423 68.2434C33.9302 69.3225 30.6481 69.9283 27.1668 69.9283C23.6855 69.9283 20.3939 69.3225 17.4912 68.2434C17.1687 68.1203 16.9316 67.8458 16.8557 67.505L15.2146 59.3735C15.1957 59.2694 15.1008 59.1936 14.9965 59.1842C14.4463 59.1652 13.8961 59.1369 13.3459 59.1085C13.1942 59.099 13.0708 59.241 13.0993 59.3924L14.6265 66.9654L15.006 68.8397C15.0724 69.1521 15.2716 69.4077 15.5561 69.5402C16.1537 69.8242 16.7798 70.0893 17.4248 70.3259C20.3465 71.4145 23.657 72.0393 27.1573 72.0393C30.6576 72.0393 33.9681 71.424 36.8898 70.3259C37.5348 70.0893 38.1514 69.8242 38.7585 69.5402C39.043 69.4077 39.2517 69.1426 39.3086 68.8397L39.6881 66.9654L41.2248 59.3546C41.2532 59.2031 41.1394 59.0611 40.9781 59.0706C40.428 59.099 39.8778 59.1274 39.3276 59.1463C39.2233 59.1463 39.1284 59.2315 39.1094 59.3356L37.4779 67.505Z" fill="#58595B"/>
<path d="M4.48621 27.709H1.10925C0.929024 27.709 0.77725 27.7658 0.663421 27.8794C0.549591 27.993 0.492676 28.1444 0.492676 28.3243V43.8489C0.492676 44.0287 0.549591 44.1802 0.663421 44.2938C0.77725 44.4074 0.929024 44.4737 1.10925 44.4737H4.48621C7.41733 44.4737 8.9066 42.9401 8.9066 39.9204V32.2528C8.9066 29.233 7.42681 27.709 4.48621 27.709ZM6.04188 40.1097C6.04188 40.7913 5.92805 41.2835 5.69091 41.5865C5.46325 41.8799 5.0269 42.0314 4.39135 42.0314H3.50917C3.37637 42.0314 3.31945 41.9746 3.31945 41.842V30.3406C3.31945 30.2081 3.37637 30.1513 3.50917 30.1513H4.39135C5.01741 30.1513 5.45376 30.3027 5.69091 30.5962C5.91857 30.8991 6.04188 31.3913 6.04188 32.0729V40.1097Z" fill="#FF9F0A"/>
<path d="M14.9301 27.425C13.64 27.425 12.6061 27.8037 11.8377 28.561C11.0789 29.3183 10.6899 30.3312 10.6899 31.5902V40.602C10.6899 41.861 11.0789 42.8739 11.8377 43.6312C12.5966 44.379 13.64 44.7672 14.9301 44.7672C16.2202 44.7672 17.2541 44.3885 18.0225 43.6312C18.7814 42.8739 19.1703 41.861 19.1703 40.602V31.5902C19.1703 30.3406 18.7814 29.3183 18.0225 28.561C17.2541 27.8132 16.2202 27.425 14.9301 27.425ZM13.5641 31.5145C13.5641 30.4542 14.01 29.9431 14.9301 29.9431C15.8502 29.9431 16.2961 30.4542 16.2961 31.5145V40.6683C16.2961 41.7285 15.8502 42.2397 14.9301 42.2397C14.01 42.2397 13.5641 41.7285 13.5641 40.6683V31.5145Z" fill="#FF9F0A"/>
<path d="M21.4373 44.4831H22.6895C22.8507 44.4831 23.0025 44.4263 23.1258 44.3127C23.2491 44.1991 23.3155 44.0477 23.3155 43.8678V42.1734C23.3155 42.003 23.2491 41.861 23.1258 41.7379C23.0025 41.6148 22.8507 41.5486 22.6895 41.5486H21.4373C21.2666 41.5486 21.1243 41.6148 21.001 41.7379C20.8777 41.861 20.8113 42.0124 20.8113 42.1734V43.8583C20.8113 44.0382 20.8777 44.1897 21.001 44.3033C21.1243 44.4263 21.2761 44.4831 21.4373 44.4831Z" fill="#FF9F0A"/>
<path d="M32.9722 43.3188C33.5698 42.5521 33.8733 41.3215 33.8733 39.6554C33.8733 38.6236 33.75 37.8 33.5034 37.2226C33.2568 36.6357 32.7825 36.1718 32.09 35.85C32.0236 35.8216 32.0236 35.8027 32.0236 35.8027C32.0236 35.8027 32.0236 35.7837 32.09 35.7459C32.6971 35.4335 33.124 35.0075 33.3516 34.4774C33.5793 33.9473 33.6931 33.2278 33.6931 32.338C33.6931 30.7666 33.399 29.5928 32.8299 28.845C32.2513 28.0972 31.2552 27.7185 29.8513 27.7185H26.1234C25.9432 27.7185 25.7914 27.7753 25.6776 27.8889C25.5637 28.0025 25.5068 28.154 25.5068 28.3338V43.8584C25.5068 44.0383 25.5637 44.1897 25.6776 44.3033C25.7914 44.4169 25.9432 44.4832 26.1234 44.4832H29.6616C31.2552 44.4832 32.3746 44.0856 32.9722 43.3188ZM30.5723 34.2218C30.3636 34.572 29.9747 34.7519 29.4055 34.7519H28.5518C28.419 34.7519 28.3621 34.6951 28.3621 34.5626V30.2839C28.3621 30.1513 28.419 30.0945 28.5518 30.0945H29.4055C29.9747 30.0945 30.3636 30.2649 30.5723 30.5962C30.781 30.937 30.8853 31.5334 30.8853 32.3854C30.8853 33.2468 30.781 33.8621 30.5723 34.2218ZM28.5518 37.0143H29.2917C30.0126 37.0143 30.4964 37.2131 30.724 37.6202C30.9612 38.0272 31.075 38.6993 31.075 39.6081C31.075 40.5547 30.9612 41.2079 30.724 41.5581C30.4964 41.9084 30.0126 42.0788 29.2917 42.0788H28.5518C28.419 42.0788 28.3621 42.022 28.3621 41.8894V37.1942C28.3621 37.0711 28.419 37.0143 28.5518 37.0143Z" fill="#FF9F0A"/>
<path d="M41.8131 44.4831H43.3687C43.5395 44.4831 43.6723 44.4169 43.7577 44.2938C43.843 44.1707 43.8715 44.0287 43.8335 43.8773L41.8889 37.3361C41.851 37.2036 41.889 37.1184 42.0028 37.0616C42.6763 36.7208 43.1506 36.2286 43.4257 35.6038C43.7007 34.9885 43.8335 34.023 43.8335 32.745C43.8335 31.1452 43.5585 29.8862 43.0083 29.0248C42.4581 28.1539 41.4052 27.709 39.8969 27.709H36.15C35.9698 27.709 35.818 27.7658 35.7042 27.8794C35.5904 27.993 35.5334 28.1444 35.5334 28.3243V43.8489C35.5334 44.0287 35.5904 44.1802 35.7042 44.2938C35.818 44.4074 35.9698 44.4737 36.15 44.4737H37.7721C37.9523 44.4737 38.1041 44.4169 38.2179 44.3033C38.3318 44.1897 38.3887 44.0382 38.3887 43.8584V37.7337C38.3887 37.6012 38.4456 37.5444 38.5784 37.5444H39.1096C39.2424 37.5444 39.3278 37.6106 39.3657 37.7432L41.0352 43.8868C41.1491 44.2843 41.4052 44.4831 41.8131 44.4831ZM41.0068 32.6693C41.0068 33.6727 40.8929 34.3637 40.6748 34.714C40.4566 35.0642 40.0392 35.2346 39.4321 35.2346H38.5784C38.4456 35.2346 38.3887 35.1778 38.3887 35.0453V30.2838C38.3887 30.1513 38.4456 30.0945 38.5784 30.0945H39.4321C40.0487 30.0945 40.4661 30.2743 40.6748 30.6151C40.8929 30.9843 41.0068 31.6659 41.0068 32.6693Z" fill="#FF9F0A"/>
<path d="M52.7122 28.561C51.9533 27.8132 50.9099 27.425 49.6198 27.425C48.3297 27.425 47.2958 27.8037 46.5274 28.561C45.7686 29.3183 45.3796 30.3312 45.3796 31.5902V40.602C45.3796 41.861 45.7686 42.8739 46.5274 43.6312C47.2863 44.379 48.3297 44.7672 49.6198 44.7672C50.9099 44.7672 51.9438 44.3885 52.7122 43.6312C53.471 42.8834 53.86 41.861 53.86 40.602V31.5902C53.86 30.3312 53.471 29.3183 52.7122 28.561ZM48.2538 31.5145C48.2538 30.4542 48.6997 29.9431 49.6198 29.9431C50.5399 29.9431 50.9858 30.4542 50.9858 31.5145V40.6683C50.9858 41.7285 50.5399 42.2397 49.6198 42.2397C48.6997 42.2397 48.2538 41.7285 48.2538 40.6683V31.5145Z" fill="#FF9F0A"/>
<path d="M0.967033 55.6249C0.616057 55.2462 0.445312 54.7161 0.445312 54.0251V49.2825C0.445312 48.5915 0.616057 48.0614 0.967033 47.6827C1.31801 47.3041 1.82076 47.1147 2.48476 47.1147C3.14877 47.1147 3.66101 47.3041 4.0025 47.6827C4.35347 48.0614 4.52422 48.5915 4.52422 49.2825V49.9925C4.52422 50.1155 4.42936 50.2102 4.30604 50.2102H3.43335C3.31003 50.2102 3.21517 50.1155 3.21517 49.9925V49.1878C3.21517 48.6388 2.98751 48.3643 2.52271 48.3643C2.0579 48.3643 1.83024 48.6388 1.83024 49.1878V54.1103C1.83024 54.6499 2.0579 54.9149 2.52271 54.9149C2.98751 54.9149 3.21517 54.6499 3.21517 54.1103V52.9838C3.21517 52.8607 3.31003 52.7661 3.43335 52.7661H4.30604C4.42936 52.7661 4.52422 52.8607 4.52422 52.9838V54.0156C4.52422 54.7067 4.35347 55.2368 4.0025 55.6154C3.65152 55.9941 3.14877 56.1834 2.48476 56.1834C1.83024 56.1928 1.31801 56.0035 0.967033 55.6249Z" fill="#FF9F0A"/>
<path d="M11.1073 55.6153C10.7469 55.2272 10.5667 54.6877 10.5667 53.9777V49.3392C10.5667 48.6293 10.7469 48.0897 11.1073 47.7016C11.4678 47.3135 11.9895 47.1241 12.6725 47.1241C13.3555 47.1241 13.8772 47.3135 14.2377 47.7016C14.5981 48.0897 14.7784 48.6387 14.7784 49.3392V53.9777C14.7784 54.6877 14.5981 55.2272 14.2377 55.6153C13.8772 56.0035 13.3555 56.1928 12.6725 56.1928C11.999 56.1928 11.4773 55.994 11.1073 55.6153ZM13.3934 54.0629V49.2446C13.3934 48.6671 13.1563 48.3737 12.6725 48.3737C12.1887 48.3737 11.9516 48.6671 11.9516 49.2446V54.0629C11.9516 54.6403 12.1887 54.9338 12.6725 54.9338C13.1563 54.9338 13.3934 54.6403 13.3934 54.0629Z" fill="#FF9F0A"/>
<path d="M21.1529 47.2472H24.3876C24.5109 47.2472 24.6058 47.3419 24.6058 47.4649V48.2885C24.6058 48.4115 24.5109 48.5062 24.3876 48.5062H22.5474C22.424 48.5062 22.3292 48.6009 22.3292 48.7239V50.7402C22.3292 50.8633 22.424 50.9579 22.5474 50.9579H23.9038C24.0271 50.9579 24.122 51.0526 24.122 51.1757V51.9992C24.122 52.1223 24.0271 52.217 23.9038 52.217H22.5474C22.424 52.217 22.3292 52.3116 22.3292 52.4347V55.8425C22.3292 55.9656 22.2343 56.0602 22.111 56.0602H21.1624C21.0391 56.0602 20.9443 55.9656 20.9443 55.8425V47.4554C20.9348 47.3419 21.0296 47.2472 21.1529 47.2472Z" fill="#FF9F0A"/>
<path d="M30.8378 47.2472H34.0725C34.1958 47.2472 34.2906 47.3419 34.2906 47.4649V48.2885C34.2906 48.4115 34.1958 48.5062 34.0725 48.5062H32.2227C32.0994 48.5062 32.0046 48.6009 32.0046 48.7239V50.7402C32.0046 50.8633 32.0994 50.9579 32.2227 50.9579H33.5792C33.7025 50.9579 33.7974 51.0526 33.7974 51.1757V51.9992C33.7974 52.1223 33.7025 52.217 33.5792 52.217H32.2227C32.0994 52.217 32.0046 52.3116 32.0046 52.4347V55.8425C32.0046 55.9656 31.9097 56.0602 31.7864 56.0602H30.8378C30.7145 56.0602 30.6196 55.9656 30.6196 55.8425V47.4554C30.6196 47.3419 30.7145 47.2472 30.8378 47.2472Z" fill="#FF9F0A"/>
<path d="M40.5229 47.2472H43.8714C43.9947 47.2472 44.0895 47.3419 44.0895 47.4649V48.2885C44.0895 48.4115 43.9947 48.5062 43.8714 48.5062H41.9078C41.7845 48.5062 41.6896 48.6009 41.6896 48.7239V50.6172C41.6896 50.7402 41.7845 50.8349 41.9078 50.8349H43.3781C43.5014 50.8349 43.5963 50.9296 43.5963 51.0526V51.8762C43.5963 51.9992 43.5014 52.0939 43.3781 52.0939H41.9078C41.7845 52.0939 41.6896 52.1886 41.6896 52.3116V54.5835C41.6896 54.7066 41.7845 54.8012 41.9078 54.8012H43.8714C43.9947 54.8012 44.0895 54.8959 44.0895 55.019V55.8425C44.0895 55.9656 43.9947 56.0602 43.8714 56.0602H40.5229C40.3995 56.0602 40.3047 55.9656 40.3047 55.8425V47.4554C40.3047 47.3419 40.3995 47.2472 40.5229 47.2472Z" fill="#FF9F0A"/>
<path d="M50.3786 47.2472H53.7271C53.8504 47.2472 53.9452 47.3419 53.9452 47.4649V48.2885C53.9452 48.4115 53.8504 48.5062 53.7271 48.5062H51.7635C51.6402 48.5062 51.5453 48.6009 51.5453 48.7239V50.6172C51.5453 50.7402 51.6402 50.8349 51.7635 50.8349H53.2338C53.3571 50.8349 53.452 50.9296 53.452 51.0526V51.8762C53.452 51.9992 53.3571 52.0939 53.2338 52.0939H51.7635C51.6402 52.0939 51.5453 52.1886 51.5453 52.3116V54.5835C51.5453 54.7066 51.6402 54.8012 51.7635 54.8012H53.7271C53.8504 54.8012 53.9452 54.8959 53.9452 55.019V55.8425C53.9452 55.9656 53.8504 56.0602 53.7271 56.0602H50.3786C50.2553 56.0602 50.1604 55.9656 50.1604 55.8425V47.4554C50.1604 47.3419 50.2553 47.2472 50.3786 47.2472Z" fill="#FF9F0A"/>
</svg>
