<svg width="175" height="142" viewBox="0 0 175 142" fill="none" xmlns="http://www.w3.org/2000/svg">
<path d="M4.17436 17.8003V57.0003H20.9184C27.3584 57.0003 31.6144 52.2403 31.6144 45.1843C31.6144 38.1283 27.2464 33.2003 20.8624 33.2003H12.4064V25.9203H29.2624L29.3184 17.8003H4.17436ZM12.4064 48.8803V41.3763H19.9104C22.0384 41.3763 23.4384 42.6643 23.4384 44.9603C23.4384 47.3123 22.0384 48.8803 19.9104 48.8803H12.4064Z" fill="white"/>
<path d="M45.623 65.4586C53.3067 69.2496 59.9633 68.2875 63.4322 61.2567C66.901 54.2259 63.6884 48.2073 56.0047 44.4163L51.5853 42.2359L58.5478 28.124L51.1654 24.4817L33.8212 59.6359L45.623 65.4586ZM71.5366 78.2438L88.8809 43.0896L81.5487 39.4721L64.2045 74.6263L71.5366 78.2438ZM44.7715 56.0465L48.0174 49.4676L52.3363 51.5985C56.1028 53.4568 57.1655 55.4797 56.1 57.6392C54.985 59.8991 52.857 60.0356 49.0905 58.1773L44.7715 56.0465Z" fill="white"/>
<path d="M98.0112 48.7379L93.0417 55.1597L101.988 62.0826L82.9669 86.6624L89.4329 91.6662L108.454 67.0864L117.4 74.0093L122.37 67.5876L98.0112 48.7379Z" fill="white"/>
<path d="M108.11 110.517C113.098 117.484 119.421 119.775 125.796 115.211C132.171 110.647 132.177 103.825 127.189 96.8584L124.32 92.8515L137.115 83.6912L132.323 76.9978L100.45 99.8169L108.11 110.517ZM111.798 101.816L117.763 97.5457L120.567 101.462C123.012 104.877 122.995 107.162 121.037 108.563C118.988 110.03 117.047 109.147 114.602 105.732L111.798 101.816Z" fill="white"/>
</svg>
