<svg width="273" height="173" viewBox="0 0 273 173" fill="none" xmlns="http://www.w3.org/2000/svg">
<path d="M223.659 8.34867L207.293 5.08256L205.682 13.1554L214.524 14.9199L209.778 38.699L200.937 36.9344L199.336 44.9523L215.702 48.2184L216.688 43.2759L247.606 49.4464L252.275 26.0518L228.979 18.8897C223.377 17.2007 222.607 13.6207 223.056 11.3691L223.659 8.34867ZM220.732 23.0115C221.853 24.2631 223.644 25.3057 226.368 26.2491L242.844 31.8214L241.244 39.8393L218.288 35.258L220.732 23.0115Z" fill="white"/>
<path d="M223.235 56.5171C214.409 49.9919 202.289 51.4077 195.764 60.2335C189.238 69.0592 191.338 81.1971 200.163 87.7224C209.259 94.4474 221.659 93.0296 228.185 84.2039C234.71 75.3781 232.331 63.2421 223.235 56.5171ZM221.655 79.3765C217.827 84.5548 210.563 85.243 205.024 81.1481C199.756 77.2529 198.464 70.2392 202.293 65.0608C206.122 59.8825 213.106 59.1962 218.374 63.0914C223.913 67.1863 225.484 74.1981 221.655 79.3765Z" fill="white"/>
<path d="M199.145 110.93L182.811 75.295L167.59 82.2716C161.736 84.955 159.85 91.0554 162.79 97.4698C165.73 103.884 171.754 106.544 177.558 103.884L185.245 100.361L188.278 106.979L172.955 114.002L176.287 121.407L199.145 110.93ZM178.711 86.1065L181.838 92.9281L175.016 96.0548C173.082 96.9415 171.273 96.3539 170.316 94.2667C169.336 92.1286 169.955 90.1199 171.89 89.2332L178.711 86.1065Z" fill="white"/>
<path d="M144.155 90.497L147.744 104.029L142.277 105.479C133.995 107.675 129.684 113.048 131.837 121.167C133.991 129.287 140.455 132.033 148.736 129.837L162.16 126.277L152.112 88.3867L144.155 90.497ZM146.763 121.96C142.704 123.036 140.444 121.724 139.798 119.288C139.008 116.311 140.407 114.376 144.466 113.299L149.825 111.878L152.122 120.538L146.763 121.96Z" fill="white"/>
<path d="M105.489 99.44C97.0606 100.983 92.293 105.727 93.7049 113.439C95.1167 121.151 101.286 124.063 109.714 122.52L114.561 121.633L117.395 137.112L125.493 135.629L118.433 97.0701L105.489 99.44ZM77.065 104.644L84.1241 143.203L92.1665 141.73L85.1073 103.171L77.065 104.644ZM111.788 106.485L113.109 113.701L108.372 114.568C104.241 115.324 102.181 114.335 101.747 111.966C101.293 109.488 102.92 108.108 107.051 107.352L111.788 106.485Z" fill="white"/>
<path d="M75.4418 144.472L69.3807 105.744L61.2477 107.016L64.7458 129.368L50.4037 108.713L41.9941 110.03L34.6482 134.079L31.1501 111.727L23.0171 112.999L29.0781 151.728L37.6537 150.386L47.5496 118.002L66.8662 145.814L75.4418 144.472Z" fill="white"/>
</svg>
