<svg width="249" height="83" viewBox="0 0 249 83" fill="none" xmlns="http://www.w3.org/2000/svg">
<path d="M21.2122 56.9443H29.4442V44.0083L33.3082 39.8643L46.3002 57.0003H55.3722L38.3482 34.5443L54.0842 17.8563L44.7882 17.8003L29.4442 34.2083V17.8003H21.2122V56.9443Z" fill="white"/>
<path d="M60.0502 37.6803C60.0502 48.6563 68.3942 57.5603 79.3702 57.5603C90.3462 57.5603 98.8582 48.6563 98.8582 37.6803C98.8582 26.3683 90.3462 17.2403 79.3702 17.2403C68.3942 17.2403 60.0502 26.3683 60.0502 37.6803ZM79.3702 25.3603C85.8102 25.3603 90.6822 30.7923 90.6822 37.6803C90.6822 44.2323 85.8102 49.4403 79.3702 49.4403C72.9302 49.4403 68.2262 44.2323 68.2262 37.6803C68.2262 30.7923 72.9302 25.3603 79.3702 25.3603Z" fill="white"/>
<path d="M105.096 37.4563C105.096 46.4163 112.096 52.8563 121.392 54.2563V59.2403H129.12V54.2563C138.472 52.9123 145.416 46.4723 145.416 37.4563C145.416 28.4403 138.472 21.9443 129.12 20.6003V15.5603H121.392V20.6563C112.096 22.0563 105.096 28.4963 105.096 37.4563ZM112.712 37.4003C112.712 33.0883 116.8 29.9523 121.392 28.9443V45.9123C116.8 44.9043 112.712 41.7123 112.712 37.4003ZM129.12 29.0003C133.432 30.0083 137.296 33.1443 137.296 37.4563C137.296 41.7123 133.432 44.8483 129.12 45.9123V29.0003Z" fill="white"/>
<path d="M151.574 17.8003V57.0003H180.246V48.8803H159.806V41.4323H177.446V33.2563H159.806V25.9203H180.246V17.8003H151.574Z" fill="white"/>
<path d="M204.012 43.7283V51.6243H228.988V43.7283H204.012ZM204.012 30.3443V38.2403H228.988V30.3443H204.012Z" fill="white"/>
</svg>
