<svg width="154" height="83" viewBox="0 0 154 83" fill="none" xmlns="http://www.w3.org/2000/svg">
<path d="M3.304 17.8003V57.0003H11.536V25.9203H29.064V57.0003H37.296V17.7443L3.304 17.8003Z" fill="white"/>
<path d="M46.5575 17.8003V57.0003H55.4055L73.2695 30.1763V57.0003H81.4455V17.8003H72.5975L54.7895 44.6243V17.8003H46.5575Z" fill="white"/>
<path d="M87.4918 17.8003V25.9203H98.8038V57.0003H106.98V25.9203H118.292V17.8003H87.4918Z" fill="white"/>
<path d="M137.52 57.0003C146.088 57.0003 151.632 53.1923 151.632 45.3523C151.632 37.5123 146.088 33.5363 137.52 33.5363H132.592V17.8003H124.36V57.0003H137.52ZM132.592 48.9363V41.6003H137.408C141.608 41.6003 143.456 42.9443 143.456 45.3523C143.456 47.8723 141.608 48.9363 137.408 48.9363H132.592Z" fill="white"/>
</svg>
